<?xml version="1.0" encoding="iso-8859-1"?>
<!-- Generator: Adobe Illustrator 19.0.0, SVG Export Plug-In . SVG Version: 6.00 Build 0)  -->
<svg version="1.1" id="Layer_1" xmlns="http://www.w3.org/2000/svg" xmlns:xlink="http://www.w3.org/1999/xlink" x="0px" y="0px"
	 viewBox="0 0 512 512" style="enable-background:new 0 0 512 512;" xml:space="preserve">
	 	   <defs>
      <linearGradient id="Gradient1">
         <stop offset="0%" stop-color="#FD4A8D"/>
        <stop offset="100%" stop-color="#8046E5"/>
      </linearGradient>
      <linearGradient id="Gradient2" x1="0" x2="0" y1="0" y2="1">
        <stop offset="0%" stop-color="#8046E5"/>
        <stop offset="50%" stop-color="#0590ff"/>
        <stop offset="100%" stop-color="#FD4A8D"/>
      </linearGradient>
      <style type="text/css"><![CDATA[
        #rect1 { fill: url(#Gradient1); }
        .stop1 { stop-color: #8046E5; }
        .stop2 { stop-color: black; stop-opacity: 0; }
        .stop3 { stop-color: #FD4A8D; }
      ]]></style>
  </defs>
<g>
<g>
	<g>
		<path fill="url(#Gradient2)" d="M501.362,383.95L320.497,51.474c-29.059-48.921-99.896-48.986-128.994,0L10.647,383.95
			c-29.706,49.989,6.259,113.291,64.482,113.291h361.736C495.039,497.241,531.068,433.99,501.362,383.95z M256,437.241
			c-16.538,0-30-13.462-30-30c0-16.538,13.462-30,30-30c16.538,0,30,13.462,30,30C286,423.779,272.538,437.241,256,437.241z
			 M286,317.241c0,16.538-13.462,30-30,30c-16.538,0-30-13.462-30-30v-150c0-16.538,13.462-30,30-30c16.538,0,30,13.462,30,30
			V317.241z"/>
	</g>
</g>
</g>
</svg>
